<svg width="200" height="78" viewBox="0 0 200 78" xmlns="http://www.w3.org/2000/svg"><path d="M1.47 26.224c.387-2.836 2.775-7.673 9.53-8l8.776-.408h.285c.042 0 .328.02.818.02 3.02 0 6.918-.51 8.734-1.918.715-.55 17.735-13.734 42.02-15.51C71.858.388 77.163 0 84.41 0c10.388 0 24.572.816 33.184 4.673.388.184 9.367 4.347 16.143 9.062l.06.04c.083.062 8.123 5.898 19.572 7.368 1.04.08 11.55 1.06 22.266 3.796C191.693 29.06 199.878 35.1 200 42.917v.04l-.02 2.736c.02 1.204.04 14.612-10.02 19l-.593.265h-11.57c-3.368 7.285-10.736 12.367-19.287 12.367-8.55 0-15.918-5.082-19.286-12.368H60.347C56.98 72.244 49.612 77.326 41.06 77.326c-8.55 0-15.917-5.082-19.284-12.368h-6.674l-.143-.02C9.94 64.47.346 59.795 0 45.43v-3.593c.02-1.184.163-11.225 1.47-15.613zm157.04 44.92c5.878 0 10.96-3.368 13.45-8.266l.57-1.898c.02-.082 1.715-5.92-.408-11.388a15.09 15.09 0 0 0-7.06-7.102c-1.654-.633-4.103-1.327-6.858-1.327-2.57 0-4.98.613-7.184 1.817a15.067 15.067 0 0 0-5.244 5.02c-1.307 2.45-2.898 7.04-.96 12.878l1.225 3.673a15.065 15.065 0 0 0 12.47 6.593zm-117.45 0c7.042 0 12.96-4.817 14.613-11.348.388-2.898.633-10-5.04-14.816-2.653-2.266-6.062-3.49-9.572-3.49-4.856 0-9.284 2.347-11.795 6.265l-.143.204c-.04.04-3.59 5.06-1.632 13.203l.653 2.694c2.633 4.347 7.428 7.286 12.918 7.286zM6.164 45.305c.286 11.674 7.898 13.286 9.266 13.47H20a19.77 19.77 0 0 1-.184-2.715c0-11.713 9.53-21.244 21.245-21.244 11.716 0 21.246 9.55 21.246 21.245 0 .92-.06 1.818-.184 2.716h75.327a19.77 19.77 0 0 1-.185-2.715c0-4.12 1.184-7.978 3.245-11.244.96-1.734 1.817-2.734 1.92-2.836l.1-.102c1.694-1.756 3.53-3.184 5.51-4.266a21.094 21.094 0 0 1 10.47-2.775c3.143 0 6.143.694 8.837 1.94 1.796.692 2.898 1.325 2.98 1.386l.102.06c3.652 2.37 5.917 5.49 7.264 8.757a21.156 21.156 0 0 1 2.04 9.08c0 .92-.06 1.818-.183 2.716h8.47c5.94-3.143 5.796-12.878 5.776-12.98v-.06l.02-2.756c-.204-8.45-24.102-14.266-41.04-15.694l-.123-.02c-12.816-1.633-21.694-7.92-22.47-8.49-6.326-4.41-15.08-8.47-15.142-8.49-7.59-3.408-20.856-4.123-30.632-4.123-7.02 0-12.286.388-12.326.388-22.327 1.654-38.51 14.103-38.674 14.226C29.796 23.57 24.02 24 20.878 24c-.45 0-.776 0-.96-.02l-8.632.387c-3.062.143-3.633 2-3.715 2.735v.306l-.14.408c-.818 2.47-1.206 9.92-1.246 14v3.49h-.02z" fill="#F00" fill-rule="evenodd"/></svg>